PathFileType	4	(X/Y/Z)	C:\Users\Basilio\Documents\Thesis Gigler\squatting_fais\c3dfiles\039\SLS_pre_front1\markers_experimental.trc
DataRate	CameraRate	NumFrames	NumMarkers	Units	OrigDataRate	OrigDataStartFrame	OrigNumFrames
200.000000	200.000000	4	63	mm	200.000000	526	1405
Frame#	Time	FHD			RBHD			C7			T10			LSHO			LUUPA			LMUPA			LDUPA			LLEP			LMEP			LRAD			LUL			LRFIN			RSHO			RUPA1			RMUPA			RDUPA			RLEP			RMEP			RRAD			RUL			RUFIN			LASI			RASI			USACR			LSACR			RSACR			LTHI1			LTHI2			LTHI3			LTHI4			LLFC			LMFC			LTIB1			LTIB2			LTIB3			LTIB4			LLMAL			LMMAL			LHEE			LMT1			LMT2			LMT5			RTHI			RTHI2			RTHI3			RTHI4			RLFC			RMFC			RTIB1			RTIB2			RTIB3			RTIB4			RLMAL			RMMAL			RHEE			RMT1			RMT2			RMT5			LBHD			CLAV			*61			*62			
		X1	Y1	Z1	X2	Y2	Z2	X3	Y3	Z3	X4	Y4	Z4	X5	Y5	Z5	X6	Y6	Z6	X7	Y7	Z7	X8	Y8	Z8	X9	Y9	Z9	X10	Y10	Z10	X11	Y11	Z11	X12	Y12	Z12	X13	Y13	Z13	X14	Y14	Z14	X15	Y15	Z15	X16	Y16	Z16	X17	Y17	Z17	X18	Y18	Z18	X19	Y19	Z19	X20	Y20	Z20	X21	Y21	Z21	X22	Y22	Z22	X23	Y23	Z23	X24	Y24	Z24	X25	Y25	Z25	X26	Y26	Z26	X27	Y27	Z27	X28	Y28	Z28	X29	Y29	Z29	X30	Y30	Z30	X31	Y31	Z31	X32	Y32	Z32	X33	Y33	Z33	X34	Y34	Z34	X35	Y35	Z35	X36	Y36	Z36	X37	Y37	Z37	X38	Y38	Z38	X39	Y39	Z39	X40	Y40	Z40	X41	Y41	Z41	X42	Y42	Z42	X43	Y43	Z43	X44	Y44	Z44	X45	Y45	Z45	X46	Y46	Z46	X47	Y47	Z47	X48	Y48	Z48	X49	Y49	Z49	X50	Y50	Z50	X51	Y51	Z51	X52	Y52	Z52	X53	Y53	Z53	X54	Y54	Z54	X55	Y55	Z55	X56	Y56	Z56	X57	Y57	Z57	X58	Y58	Z58	X59	Y59	Z59	X60	Y60	Z60	X61	Y61	Z61	X62	Y62	Z62	X63	Y63	Z63	

527	2.63	-258.3467712402344	1561.071899414063	-638.8092651367189	-389.3366088867189	1537.985473632813	-620.8439331054689	-465.8013000488282	1381.891967773438	-699.8695678710939	-549.8412475585939	1089.64208984375	-726.7962036132814	-394.5834350585939	1387.859497070313	-857.6306762695315	-237.8485412597657	1353.685302734375	-974.984069824219	-212.3663177490235	1383.100463867188	-943.1636352539065	-168.5588684082032	1362.389770507813	-977.961120605469	-101.7422561645508	1369.974731445313	-975.7407836914065	-96.78694152832034	1298.050537109375	-947.9223632812502	181.8326263427735	1390.908447265625	-904.1431884765627	177.9674072265625	1403.094604492188	-979.5242919921877	262.6576538085938	1423.095092773438	-899.197692871094	-357.0271301269532	1372.07080078125	-544.6254882812501	-203.3228149414063	1311.515747070313	-436.5418395996095	-176.6391143798828	1345.423583984375	-461.7354431152345	-134.6224975585938	1310.847045898438	-434.2982482910157	-71.42761230468751	1326.887817382813	-442.4865112304689	-62.48970794677736	1258.923583984375	-480.4825744628907	216.9351043701172	1380.349487304688	-518.5288696289064	215.3346405029297	1373.37939453125	-441.7418823242189	302.5214233398438	1415.55224609375	-509.3296508789064	-412.877166748047	930.586853027344	-870.9516601562502	-395.6116943359376	898.3607177734377	-650.5083007812501	-587.0899047851564	942.1510009765627	-741.0140380859376	-591.1680297851564	912.5684814453127	-771.7943115234377	-585.6983642578126	905.7368774414065	-713.3385620117189	-275.7101135253907	744.3082275390626	-950.809997558594	-191.1585845947266	734.9225463867189	-941.9160766601565	-171.706771850586	774.705749511719	-924.2729492187502	-160.4385986328125	682.1116333007814	-934.1485595703127	-55.65435028076173	622.2674560546876	-929.087097167969	-25.82815551757813	617.3267822265626	-813.5935668945315	98.69617462158206	580.5362548828126	-901.1209716796877	95.34577941894533	508.5903320312501	-950.4600830078127	124.1334457397461	537.6200561523439	-930.4938964843752	187.0127563476563	487.569305419922	-894.446716308594	291.2060852050782	347.6723632812501	-937.4905395507815	297.7931518554688	347.6606140136719	-850.1423950195315	282.9232177734376	257.3263244628907	-907.590515136719	446.4877014160157	418.9891662597657	-856.5086669921877	444.0220947265626	421.9418029785157	-899.0056152343752	434.1228637695314	380.8572082519532	-957.0381469726565	-289.3490295410157	663.5256958007814	-603.6048583984376	-224.1026916503907	647.4864501953126	-606.0241699218751	-201.0767822265626	670.1323242187501	-613.2656250000001	-195.345443725586	568.3833618164064	-619.1350708007814	-158.0230407714844	461.3038940429689	-656.6658325195314	-138.4377136230469	471.924041748047	-768.697692871094	-201.752670288086	274.0026245117188	-707.0769042968751	-306.0353088378907	249.1934051513672	-691.7322387695314	-268.5413513183594	223.4053497314454	-703.2388305664064	-276.4125671386719	178.5112609863282	-742.5672607421876	-376.1241149902344	122.5546798706055	-722.0614624023439	-348.1220703125001	136.5032348632813	-808.6640625000002	-454.5296020507814	107.2603836059571	-772.3332519531252	-231.0662841796876	52.08242034912111	-781.3552246093752	-234.7976074218751	58.36962509155275	-735.3790283203126	-291.6442871093751	44.60210418701173	-684.1840209960939	-416.0737915039064	1531.759155273438	-759.7338256835939	nan	nan	nan	nan	nan	nan	nan	nan	nan	
528	2.635	-258.2599792480469	1560.536865234375	-638.8079833984376	-389.2668457031251	1537.380859375	-620.6978759765626	-465.7693481445314	1381.251831054688	-699.6954345703126	-549.8487548828126	1089.269775390625	-726.7484130859376	-394.1169433593751	1387.260009765625	-857.517761230469	-237.8361816406251	1353.34375	-974.9197998046877	-212.2510986328126	1382.703247070313	-943.0689697265627	-168.5255279541016	1361.933349609375	-977.9866943359377	-101.6873168945313	1369.529907226563	-975.7153930664065	-96.70691680908206	1297.591186523438	-947.8487548828127	181.802230834961	1390.487060546875	-904.156433105469	178.0619659423828	1402.515869140625	-979.487487792969	262.7145385742188	1422.222412109375	-899.2380371093752	-356.8737792968751	1371.6142578125	-544.5473022460939	-203.1178741455079	1310.85302734375	-436.4640197753907	-176.4881439208985	1344.901489257813	-461.6326599121095	-134.5614166259766	1310.29541015625	-434.1398315429689	-71.2206497192383	1326.108032226563	-442.3485412597657	-62.36695861816408	1258.3232421875	-480.4709777832032	217.1056518554688	1379.894409179688	-518.3126220703126	215.5224151611329	1372.5732421875	-441.5620422363282	302.5839843750001	1415.17822265625	-509.1474609375001	-412.8910217285157	929.956970214844	-870.8757934570315	-395.6395263671876	897.8828125000002	-650.4007568359376	-587.2166748046876	941.7766113281252	-741.0484619140626	-591.1333618164064	911.9958496093752	-771.7817993164065	-585.7296142578126	905.3132934570315	-713.2362670898439	-275.7045288085938	743.8877563476564	-950.8962402343752	-191.2183074951172	734.4695434570314	-941.9643554687502	-171.3277740478516	774.162536621094	-924.2584228515627	-160.3655853271485	681.8344726562501	-934.218933105469	-55.62282180786134	621.9387817382814	-929.2561035156252	-25.66832542419434	617.0798339843751	-813.8274536132815	98.75881195068362	580.2600097656251	-901.4566650390627	95.53701019287111	508.6923217773439	-950.739685058594	124.3076248168946	537.2366943359376	-930.846130371094	187.0989227294922	487.2238769531251	-894.8322753906252	291.3685302734376	347.4724426269532	-938.0346679687502	298.0394592285157	347.4728088378907	-850.7724609375002	283.1358947753907	257.0770263671876	-908.0877075195315	446.638641357422	418.7160644531251	-857.2322998046877	444.1325073242189	421.576141357422	-899.8945312500002	434.0746459960939	380.5943908691407	-957.7398071289065	-289.3395996093751	663.2811889648439	-603.4165649414064	-223.9830627441407	647.2825927734376	-605.8037719726564	-201.0574798583985	669.8898315429689	-613.0166015625001	-195.2599792480469	568.1429443359376	-618.7813720703126	-157.6243133544922	461.3211975097657	-656.3066406250001	-138.1487274169922	471.7908020019532	-768.3662719726565	-201.622787475586	273.8616638183594	-706.7793579101564	-305.9388122558594	249.2014770507813	-691.4147949218751	-268.4896850585938	223.3649291992188	-703.0458984375001	-276.3628540039063	178.5788879394532	-742.4401245117189	-376.1369323730469	122.5286178588867	-722.0321044921876	-348.1326293945313	136.5774078369141	-808.5383911132815	-454.4652099609376	107.2285461425782	-772.2612304687502	-231.0169982910157	52.16034317016603	-781.3884277343752	-234.7931823730469	58.29686737060548	-735.3825073242189	-291.6261596679688	44.5774154663086	-684.1799926757814	-416.0928344726564	1531.23779296875	-759.5234375000001	nan	nan	nan	nan	nan	nan	nan	nan	nan	
529	2.64	-258.0732116699219	1559.9677734375	-638.7182006835939	-389.0029296875001	1536.921997070313	-620.5747070312501	-465.6207275390626	1380.6181640625	-699.5772094726564	-549.7941894531251	1088.760986328125	-726.7387695312501	-394.1155090332032	1386.784423828125	-857.385192871094	-237.9401397705079	1352.3056640625	-974.9539184570315	-212.1992950439454	1382.251708984375	-943.0518798828127	-168.4634552001953	1361.451416015625	-977.8975830078127	-101.5053939819336	1369.111694335938	-975.673034667969	-96.71259307861331	1297.05419921875	-947.7889404296877	181.9524993896485	1389.87841796875	-904.1781005859377	178.1337127685547	1401.975341796875	-979.556579589844	262.7514038085938	1421.978515625	-899.341735839844	-356.7694396972657	1370.978149414063	-544.3425292968751	-202.9458007812501	1310.005126953125	-436.2728576660157	-176.386962890625	1344.3388671875	-461.466522216797	-134.345199584961	1309.640502929688	-434.0352478027345	-71.03445434570314	1325.533325195313	-442.2527770996095	-62.16695404052736	1257.698486328125	-480.494842529297	217.3561553955079	1379.46728515625	-518.2122192382814	215.654769897461	1372.166259765625	-441.4135131835939	302.8243103027344	1414.593872070313	-509.0088806152345	-412.8178100585939	929.2727661132815	-870.8667602539065	-395.7268981933595	897.3883056640627	-650.2601928710939	-587.2112426757814	941.245300292969	-741.0106201171876	-591.1295166015626	911.3933715820315	-771.720886230469	-585.7079467773439	904.8873291015627	-713.1901855468751	-275.6898498535157	743.3367919921876	-950.9172973632815	-191.2868957519532	734.0492553710939	-942.087585449219	-171.346176147461	773.7315673828127	-924.3347167968752	-160.2653350830078	681.3243408203126	-934.2920532226565	-55.57843017578126	621.5712890625001	-929.4022216796877	-25.49802207946778	616.7189941406251	-814.088317871094	98.86542510986331	580.0313720703126	-901.727966308594	95.73885345458986	508.5776672363282	-950.815856933594	124.3647613525391	536.8713989257814	-931.1817626953127	187.2667999267578	486.8928833007814	-895.1572875976565	291.3905944824219	347.1374511718751	-938.617858886719	298.2165222167969	347.1201477050782	-851.467468261719	283.3535461425782	256.6911010742188	-908.5730590820315	447.1130676269532	418.9774475097657	-858.3126220703127	443.5250854492189	422.2799072265626	-900.9793701171877	434.0954589843751	380.3262634277344	-958.5881347656252	-289.3247375488282	663.0248413085939	-603.2116699218751	-224.2797851562501	646.5839843750001	-605.7463378906251	-201.1258850097657	669.6212158203126	-612.7307128906251	-195.1384429931641	567.8491210937501	-618.4818115234376	-157.3851776123047	461.1160888671876	-655.9646606445314	-137.8758697509766	471.5888977050782	-767.9840698242189	-201.4887237548829	273.6900634765626	-706.5612182617189	-305.8959655761719	249.2071838378907	-691.1608276367189	-268.3397216796876	223.3361511230469	-702.7537231445314	-276.3723449707032	178.5924682617188	-742.2899780273439	-376.1131896972657	122.4670486450196	-721.9153442382814	-348.1000671386719	136.5916442871094	-808.4470825195315	-454.4544067382814	107.2517395019532	-772.2313232421877	-230.9735717773438	52.12386322021486	-781.3498535156252	-234.8263702392579	58.26073074340822	-735.3984375000001	-291.6434326171876	44.47384262084962	-684.1848754882814	-415.7910461425782	1530.851806640625	-759.4772338867189	nan	nan	nan	nan	nan	nan	nan	nan	nan	
530	2.645	-257.8618469238282	1559.394409179688	-638.7125854492189	-388.8109741210939	1536.388427734375	-620.4152832031251	-465.6199340820314	1380.221923828125	-699.4478759765626	-549.7744750976564	1088.2802734375	-726.7443237304689	-394.001434326172	1386.197387695313	-857.2979125976565	-237.6593780517579	1352.394897460938	-974.8220825195315	-212.0509033203126	1381.68701171875	-943.002624511719	-168.3698120117188	1360.98095703125	-977.871520996094	-101.4982147216797	1368.55517578125	-975.690856933594	-96.53495788574222	1296.654052734375	-947.8347167968752	182.0986022949219	1389.223999023438	-904.2071533203127	178.2916412353516	1401.39697265625	-979.6936645507815	263.0333862304688	1421.40478515625	-899.585632324219	-356.6668395996094	1370.418090820313	-544.2771606445314	-202.8276519775391	1309.314575195313	-436.3348083496095	-175.909896850586	1343.818237304688	-461.193572998047	-134.1477203369141	1308.99072265625	-433.9668273925782	-70.93889617919923	1325.082763671875	-442.2225036621095	-61.97981262207033	1257.125122070313	-480.6472167968751	217.5060424804688	1378.977905273438	-518.0989990234376	215.7085571289063	1371.782348632813	-441.2767333984376	303.0183715820313	1414.0029296875	-508.7242736816407	-412.7283935546876	928.7421875000002	-870.8435058593752	-395.797821044922	896.910339355469	-650.2048339843751	-587.2730102539064	940.7438964843752	-740.9223022460939	-591.2038574218751	910.9594726562502	-771.5971679687502	-585.7677612304689	904.4661865234377	-713.1939086914064	-275.6988220214844	742.7868652343751	-950.9217529296877	-191.3241271972657	733.5307006835939	-942.1645507812502	-171.417724609375	773.213073730469	-924.4713134765627	-160.2528228759766	680.9213256835939	-934.4463500976565	-55.49047088623048	621.2239990234376	-929.646667480469	-25.28291893005372	616.4584350585939	-814.3082275390627	98.98157501220706	579.6779174804689	-901.9383544921877	95.77982330322267	508.1576538085939	-951.3877563476565	124.5842971801758	536.5406494140626	-931.5109863281252	187.3760070800782	486.5740356445314	-895.3872680664065	291.2879943847657	346.6400451660157	-939.1444091796877	298.3666687011719	346.8491516113282	-851.994323730469	283.3917541503907	256.6606140136719	-908.8806152343752	447.168426513672	418.6365356445314	-859.1236572265627	443.7744445800782	421.9712219238282	-901.7927246093752	434.0430908203126	379.9427795410157	-959.2913818359377	-289.2755737304688	662.6525268554689	-602.9358520507814	-223.9611206054688	646.7648315429689	-605.1514282226564	-201.0889892578126	669.3562011718751	-612.3458862304689	-195.0044250488282	567.6790161132814	-618.1926269531251	-157.1996154785157	460.9719238281251	-655.6514282226564	-137.4935760498047	471.3792114257814	-767.5558471679689	-201.4445495605469	273.6730041503907	-706.2803955078126	-305.8100891113282	249.0552520751954	-690.9634399414064	-268.1572265625001	223.4481353759766	-702.4053955078126	-276.3303527832032	178.4864959716797	-742.1820068359376	-376.0801696777344	122.3765335083008	-721.8417358398439	-348.0138854980469	136.6703338623047	-808.2959594726565	-454.4440002441407	107.2324676513672	-772.1949462890627	-230.9853210449219	52.13492584228517	-781.3626098632815	-234.8323822021485	58.23403930664064	-735.4965209960939	-291.6541748046876	44.4560661315918	-684.1800537109376	-415.5440673828126	1530.297607421875	-759.3988647460939	nan	nan	nan	nan	nan	nan	nan	nan	nan	
